<svg width="73" height="75" viewBox="0 0 73 75" fill="none" xmlns="http://www.w3.org/2000/svg">
<path fill-rule="evenodd" clip-rule="evenodd" d="M63.9375 18.3448L64.6073 11.069L36.0077 33.1207L27.1309 25.3621L3.88161 45.319L0 39.7672L27.3568 17.6121L36.8551 25.6034L61.0647 6.93104L54.3909 5.84483L55.8677 0L70.4903 2.46552L69.1749 18.9655L63.9375 18.3448ZM19.6824 74.8879L1.59783 75L0.992593 53.4483L19.5533 52.0086L19.6824 74.8879ZM46.313 74.7328L28.2042 74.8362L27.147 42.1638L46.1838 40.7845L46.313 74.7328ZM72.419 74.5862L54.0762 74.6897L53.6807 26.2931L73 24.8017L72.419 74.5862Z" fill="#1B201D"/>
</svg>
