<svg width="498" height="548" viewBox="0 0 498 548" fill="none" xmlns="http://www.w3.org/2000/svg">
<path d="M442.145 272.081V272.074C442.042 269.111 441.898 266.154 441.755 263.191C441.596 259.927 441.441 256.665 441.345 253.405C441.244 249.731 441.297 245.933 441.352 241.751C441.483 232.05 441.619 222.021 439.672 211.438C438.674 205.993 436.478 202.142 434.947 199.456C434.71 199.041 434.464 198.624 434.245 198.168C431.554 192.608 428.219 188.317 423.753 184.673C417.895 179.887 411.479 176.721 405.549 174.02C404.941 172.387 404.274 170.982 403.66 169.686C401.045 164.166 397.883 158.942 394.264 154.156L393.839 153.593C390.698 149.446 387.137 144.743 382.623 140.392C378.148 136.076 373.47 132.683 367.777 129.638C366.964 121.874 364.306 112.981 360.782 106.678C352.976 92.7453 339.611 80.9752 325.897 75.9603C320.047 73.8251 313.111 71.5993 305.219 70.7869C304.107 67.1176 302.558 63.828 300.538 60.8326C294.445 51.7812 285.481 47.0002 278.912 43.4943L278.152 43.0919C267.675 37.4911 255.337 34.9559 241.451 35.5293C225.157 36.1933 210.615 41.2007 198.211 50.4307C197.321 51.0971 196.395 51.751 195.452 52.4174L194.396 53.1594C189.798 56.4012 184.587 60.0756 179.998 64.9949C174.827 70.5329 171.97 76.6594 169.689 81.9912L167.533 87.0664C163.997 95.4263 160.353 104.05 155.839 111.489L155.471 111.698C152.728 113.247 149.981 114.804 147.182 116.243C139.999 119.937 134.295 123.519 129.23 127.51C120.226 134.595 113.881 141.777 109.259 150.115C103.733 160.092 103.117 169.754 103.195 177.06C103.202 177.666 103.24 178.262 103.28 178.858L103.316 179.397C103.444 181.695 104.646 183.803 106.555 185.083C108.466 186.368 110.868 186.675 113.046 185.931C153.995 171.801 199.823 174.902 235.634 194.217C236.975 194.942 238.501 195.221 240.025 195.045C259.537 192.636 281.012 193.901 302.133 198.714C335.303 206.269 371.884 234.465 391.088 267.283C399.068 280.922 404.37 295.013 407.302 310.362C407.765 312.794 409.422 314.829 411.708 315.772C412.611 316.149 413.567 316.333 414.518 316.333C415.971 316.333 417.412 315.903 418.65 315.06C419.384 314.562 420.259 314.039 421.268 313.455C425.682 310.898 432.354 307.03 436.886 299.382C442.029 290.705 442.452 281.135 442.145 272.081Z" fill="#3C3C3C"/>
<path d="M248.798 547.032C386.205 547.032 497.595 435.642 497.595 298.235C497.595 160.827 386.205 49.437 248.798 49.437C111.39 49.437 0 160.827 0 298.235C0 435.642 111.39 547.032 248.798 547.032Z" fill="#3C3C3C"/>
<path d="M248.798 518.288C127.46 518.288 28.7438 419.573 28.7438 298.234C28.7438 176.896 127.46 78.1807 248.798 78.1807C370.136 78.1807 468.852 176.896 468.852 298.234C468.852 419.573 370.136 518.288 248.798 518.288ZM248.798 152.576C168.482 152.576 103.14 217.918 103.14 298.234C103.14 378.551 168.482 443.892 248.798 443.892C329.114 443.892 394.456 378.551 394.456 298.234C394.456 217.918 329.114 152.576 248.798 152.576Z" fill="#A44343"/>
<path d="M248.798 538.577C116.273 538.577 8.4554 430.759 8.4554 298.235C8.4554 165.71 116.273 57.8923 248.798 57.8923C381.322 57.8923 489.14 165.71 489.14 298.235C489.14 430.759 381.325 538.577 248.798 538.577ZM248.798 64.6527C120 64.6527 15.2182 169.437 15.2182 298.232C15.2182 427.027 120.003 531.812 248.798 531.812C377.593 531.812 482.377 427.027 482.377 298.232C482.377 169.437 377.595 64.6527 248.798 64.6527Z" fill="#A44343"/>
<path d="M248.798 455.726C161.958 455.726 91.3066 385.075 91.3066 298.235C91.3066 211.395 161.958 140.744 248.798 140.744C335.638 140.744 406.289 211.395 406.289 298.235C406.289 385.075 335.638 455.726 248.798 455.726ZM248.798 164.415C175.01 164.415 114.978 224.447 114.978 298.235C114.978 372.024 175.01 432.055 248.798 432.055C322.587 432.055 382.617 372.022 382.617 298.235C382.617 224.445 322.587 164.415 248.798 164.415Z" fill="#3C3C3C"/>
<mask id="mask0_17_3591" style="mask-type:luminance" maskUnits="userSpaceOnUse" x="95" y="0" width="368" height="444">
<path d="M305.4 0.00754059C105.441 3.71715 77.7985 157.144 103.14 298.235C103.14 378.548 168.481 443.89 248.795 443.89C329.111 443.89 462.204 378.548 462.204 298.232C462.204 217.916 385.703 -1.48133 305.4 0.00754059Z" fill="white"/>
</mask>
<g mask="url(#mask0_17_3591)">
<path d="M434.801 272.33C434.801 272.33 434.801 272.331 434.801 272.326C434.7 269.401 434.559 266.476 434.416 263.546C434.255 260.233 434.097 256.921 434.001 253.606C433.893 249.733 433.951 245.719 434.004 241.645C434.132 232.297 434.263 222.634 432.447 212.758C431.672 208.545 429.929 205.485 428.642 203.226C428.3 202.628 427.948 202.022 427.628 201.363C425.39 196.735 422.759 193.34 419.1 190.354C413.094 185.445 406.065 182.291 399.865 179.505L399.493 179.336C399.4 178.904 399.287 178.459 399.148 178.003C398.555 176.057 397.773 174.412 397.021 172.828C394.616 167.757 391.719 162.969 388.404 158.585L387.997 158.047C385.014 154.106 381.632 149.637 377.52 145.673C372.957 141.272 368.101 137.922 361.839 134.846L360.684 134.263V134.132C360.644 126.773 357.988 116.736 354.372 110.265C347.39 97.8004 335.517 87.2978 323.377 82.8589C317.273 80.6306 309.917 78.2967 301.658 77.8742C300.86 77.8314 300.083 77.8063 299.321 77.8289C298.479 72.7813 296.864 68.5235 294.445 64.9321C289.369 57.3946 281.666 53.2877 275.474 49.9855L274.689 49.568C265.411 44.6109 254.323 42.3399 241.751 42.868C226.962 43.4716 213.796 47.9911 202.615 56.3107C201.486 57.1532 200.306 57.9831 199.106 58.8282L198.666 59.1375C194.348 62.1831 189.451 65.6312 185.367 70.0073C181.006 74.6802 178.481 80.1125 176.449 84.8633L174.304 89.9159C170.405 99.1359 166.376 108.67 161.082 116.97L159.365 117.938C156.445 119.59 153.522 121.248 150.545 122.779C143.802 126.247 138.473 129.582 133.775 133.287C125.566 139.748 119.819 146.227 115.687 153.676C110.994 162.154 110.476 170.587 110.544 176.982C110.551 177.661 110.617 178.318 110.652 178.984C152.365 164.593 200.301 166.807 239.125 187.751C260.656 185.088 282.873 186.791 303.765 191.549C341.128 200.06 378.402 231.065 397.428 263.573C406.213 278.585 411.595 293.663 414.518 308.986C415.388 308.395 416.421 307.772 417.563 307.113C421.547 304.804 427.007 301.648 430.566 295.637C434.954 288.233 435.052 279.725 434.801 272.33Z" fill="#A44343"/>
</g>
<mask id="mask1_17_3591" style="mask-type:luminance" maskUnits="userSpaceOnUse" x="95" y="0" width="368" height="444">
<path d="M305.4 0.00754059C105.441 3.71715 77.7985 157.144 103.14 298.235C103.14 378.548 168.481 443.89 248.795 443.89C329.111 443.89 462.204 378.548 462.204 298.232C462.204 217.916 385.703 -1.48133 305.4 0.00754059Z" fill="white"/>
</mask>
<g mask="url(#mask1_17_3591)">
<path d="M421.954 207.067C421.529 206.32 421.089 205.555 420.689 204.728C418.946 201.124 417.012 198.611 414.223 196.333C409.007 192.07 402.471 189.135 396.704 186.544L394.451 185.531C393.673 185.179 392.891 184.827 392.096 184.515C392.099 184.472 392.102 184.427 392.104 184.384C392.167 183.307 392.252 181.831 391.772 180.257C391.347 178.866 390.738 177.581 390.052 176.137C387.874 171.537 385.253 167.207 382.263 163.255L381.848 162.71C378.895 158.806 375.84 154.767 372.17 151.231C368.207 147.406 363.951 144.481 358.373 141.742L356.907 141.003C355.853 140.46 354.794 139.921 353.723 139.456C353.439 139.33 352.926 139.167 352.302 138.991C352.526 138.385 352.697 137.852 352.775 137.323C352.926 136.292 352.981 135.239 352.976 134.182C352.941 128.169 350.599 119.319 347.644 114.037C341.528 103.107 331.216 93.9374 320.736 90.1071C315.173 88.0775 308.513 85.9498 301.26 85.5776C298.858 85.4568 296.567 85.6656 294.357 85.8744L292.327 86.0504C292.317 86.0529 292.307 86.053 292.302 86.053C292.231 81.0557 291.567 74.4588 288.054 69.2427C284.05 63.2998 277.566 59.8418 271.85 56.7936L271.058 56.3711C263.007 52.0704 253.257 50.1188 242.067 50.5765C228.859 51.1122 217.139 55.1236 207.222 62.5C205.902 63.4834 204.516 64.4567 203.11 65.4476C198.89 68.4203 194.529 71.4987 191.006 75.2712C187.495 79.0311 185.395 83.5631 183.546 87.8813L181.416 92.8937C177.402 102.395 173.25 112.216 167.893 120.865C167.199 121.985 166.155 122.958 164.872 123.682L163.16 124.65C160.152 126.351 157.141 128.053 154.068 129.638C147.781 132.867 142.849 135.953 138.543 139.34C131.161 145.153 126.044 150.894 122.432 157.411C118.617 164.307 118.194 171.447 118.255 176.897C118.307 181.597 119.261 186.122 120.184 190.493C120.631 192.62 121.081 194.743 121.413 196.868C121.906 200.02 122.515 203.148 123.124 206.274C123.757 209.524 124.391 212.773 124.887 216.058L125.551 220.406C126.3 225.285 127.052 230.167 127.686 235.063C128.189 238.942 128.496 242.945 128.797 246.818C129.029 249.811 129.26 252.807 129.577 255.799C130.241 262.072 131.089 268.307 132.049 275.218C132.937 281.633 133.023 287.71 132.985 293.326C132.932 300.707 132.037 306.786 130.166 312.45C128.491 317.53 124.912 322.233 121.454 326.782L119.955 328.759C118.574 330.6 117.226 332.469 115.88 334.34C112.935 338.424 109.895 342.65 106.56 346.404L105.453 347.649C103.316 350.049 101.18 352.453 99.1734 354.958C91.9629 363.957 83.5554 372.319 75.4269 380.4L73.4124 382.404C55.5158 400.23 37.0884 416.321 21.4226 429.708C18.4876 432.218 15.5375 434.716 12.5849 437.211C6.14155 442.668 -0.523218 448.304 -6.95656 454.013C-7.03201 454.081 -7.11247 454.156 -7.19295 454.229C-7.96002 454.345 -8.71201 454.594 -9.40615 454.974C-12.6153 456.749 -13.7822 460.804 -12.0066 464.013C6.11636 496.788 99.8952 574.79 141.81 602.921C149.755 608.255 155.6 611.622 159.171 612.923C160.509 613.411 161.935 613.461 163.28 613.074C163.612 612.978 163.942 612.857 164.261 612.709C165.873 611.959 167.096 610.629 167.704 608.967C167.9 608.433 168.021 607.878 168.064 607.304C169.515 605.35 170.81 603.285 172.075 601.281C172.82 600.091 173.562 598.919 174.316 597.798L178.026 592.239C181.265 587.373 184.615 582.338 188.066 577.537L191.617 572.612C196.257 566.189 201.056 559.547 205.537 552.782C208.238 548.712 210.804 544.56 213.371 540.405C216.734 534.963 220.207 529.337 223.919 524.058C227.46 519.018 230.78 513.782 233.994 508.719C235.981 505.583 237.968 502.447 240.015 499.346C255.518 475.873 268.492 457.185 280.859 440.538C285.139 434.773 289.206 429.867 293.29 425.533C295.204 423.504 297.065 421.421 298.931 419.339C302.201 415.69 305.581 411.917 309.147 408.565C312.756 405.182 316.841 402.064 320.792 399.051C322.306 397.896 323.817 396.742 325.313 395.567C328.626 392.967 331.903 390.329 335.18 387.688C337.473 385.839 339.767 383.991 342.073 382.157C345.315 379.577 348.768 377.095 352.106 374.695C354.583 372.91 357.065 371.127 359.5 369.278C365.604 364.651 371.132 359.563 375.264 355.647C380.59 350.604 385.11 344.722 388.696 338.155L391.038 333.845C393.384 329.506 395.809 325.022 398.344 320.729L400.225 317.55C402.612 313.531 404.993 309.515 407.244 305.418C407.576 304.814 407.878 304.394 408.17 304.13C409.671 302.759 411.635 301.623 413.71 300.42C417.322 298.335 421.414 295.966 423.944 291.691C427.269 286.075 427.326 279.174 427.103 272.585C427.002 269.692 426.864 266.803 426.725 263.913C426.562 260.548 426.398 257.183 426.305 253.815C426.192 249.791 426.25 245.619 426.305 241.585C426.429 232.591 426.557 223.296 424.874 214.149C424.326 211.226 423.066 209.018 421.954 207.067Z" fill="#3C3C3C"/>
<path d="M132.899 234.389C132.268 229.493 131.516 224.621 130.769 219.747L130.088 215.273C129.575 211.91 128.918 208.54 128.287 205.281C127.688 202.213 127.09 199.147 126.604 196.053C126.257 193.84 125.792 191.627 125.322 189.409C124.454 185.284 123.556 181.019 123.511 176.839C123.433 169.702 124.52 164.496 127.035 159.953C129.786 154.984 133.649 150.389 138.84 145.902C143.809 141.612 149.433 137.892 156.037 134.527C158.995 133.02 161.905 131.391 164.872 129.716L165.916 129.137C168.275 127.84 170.504 126.61 172.156 123.966C177.835 114.872 182.125 104.722 186.273 94.9058L188.378 89.9412C190.04 86.0581 191.909 82.0039 194.849 78.8501C198.002 75.4725 202.145 72.5551 206.151 69.7333C207.59 68.7172 209.01 67.7188 210.361 66.7128C219.41 59.9827 230.151 56.3183 242.281 55.8203C252.52 55.4028 261.368 57.1458 268.58 60.9987L269.383 61.4288C271.895 62.7693 274.491 64.1525 276.895 65.7671C279.948 67.8169 282.174 69.9118 283.701 72.1753C286.771 76.7375 287.086 83.1306 287.053 87.5444C287.051 87.7707 287.025 88.0273 287 88.2939C286.895 89.4432 286.764 90.8767 287.888 91.6287L288.494 91.8978C289.347 92.1116 290.398 91.84 291.512 91.5533C291.977 91.4326 292.417 91.3068 292.727 91.2817C293.436 91.2288 294.145 91.1609 294.855 91.0955C296.972 90.9019 298.974 90.7158 300.996 90.8189C307.555 91.1584 313.747 93.1428 318.938 95.0391C328.13 98.3991 337.36 106.623 342.843 116.215C345.335 120.574 347.146 126.318 347.564 131.207C347.705 132.885 347.835 134.816 347.579 136.561C347.528 136.843 347.305 137.374 347.073 137.957C346.294 139.942 345.909 141.018 346.331 141.903C346.809 142.887 348.258 143.352 350.448 143.925C350.964 144.061 351.407 144.167 351.623 144.262C352.586 144.68 353.522 145.163 354.462 145.641C354.993 145.915 355.526 146.186 356.064 146.45C361.663 149.199 365.475 151.918 369.379 155.841C371.559 158.032 373.538 160.419 375.405 162.883L378.078 166.417C380.973 170.242 383.236 173.969 385.203 178.149L385.472 178.72C385.952 179.729 386.448 180.773 386.757 181.786C386.963 182.46 386.916 183.245 386.868 184.072C386.818 184.965 386.762 185.89 386.994 186.841C387.122 187.362 387.376 188.111 388.1 188.597C388.465 188.841 388.847 188.954 389.217 189.064C389.395 189.117 389.602 189.178 389.838 189.268C390.678 189.58 391.495 189.95 392.308 190.317L394.539 191.323C399.184 193.408 403.985 195.563 408.145 198.357C409.103 198.999 410.023 199.675 410.904 200.394C413.092 202.183 414.56 204.099 415.966 207.009C416.504 208.123 417.095 209.126 417.664 210.127C418.76 212.061 419.563 214.159 419.925 216.352C421.285 224.616 421.165 233.21 421.049 241.532C420.991 245.616 420.936 249.839 421.052 253.974C421.147 257.374 421.311 260.774 421.474 264.169C421.612 267.037 421.751 269.901 421.849 272.771C422.005 277.345 422.244 284.259 419.422 289.028C417.591 292.119 414.425 293.947 411.077 295.883C408.582 297.327 406.002 298.818 403.957 300.901C402.66 302.221 401.759 304.05 400.889 305.823C400.529 306.555 400.18 307.271 399.818 307.895C398.485 310.199 397.127 312.487 395.771 314.779L393.824 318.068C391.254 322.422 388.817 326.926 386.46 331.282L383.971 335.864C380.658 341.923 376.506 347.267 371.277 352.202C367.364 355.899 362.123 360.705 356.328 365.098C353.914 366.929 351.457 368.697 349 370.465C345.622 372.895 342.136 375.402 338.807 378.053C336.48 379.902 334.166 381.768 331.85 383.634C328.601 386.249 325.356 388.865 322.074 391.44C320.59 392.607 319.089 393.752 317.585 394.899C313.538 397.989 309.351 401.181 305.556 404.742C301.811 408.256 298.35 412.121 295.003 415.858C293.29 417.772 291.58 419.684 289.83 421.555C285.398 426.286 281.331 431.122 277.743 435.938C264.984 453.042 251.604 472.275 235.637 496.461C233.557 499.607 231.537 502.794 229.52 505.975C226.354 510.965 223.082 516.128 219.626 521.048C215.821 526.455 212.303 532.156 208.9 537.669C206.405 541.706 203.827 545.878 201.169 549.89C196.735 556.579 191.959 563.191 187.341 569.582L183.808 574.481C180.304 579.358 176.932 584.43 173.665 589.335C172.435 591.186 171.205 593.034 169.968 594.873C169.188 596.037 168.421 597.252 167.647 598.479C166.2 600.775 164.706 603.149 163.062 605.227L162.647 605.747L162.79 606.396C162.861 606.718 162.86 606.96 162.788 607.161C162.657 607.51 162.4 607.792 162.061 607.951C161.726 608.107 161.346 608.122 160.997 607.996C157.858 606.849 152.242 603.587 144.755 598.562C104.266 571.388 10.0625 493.046 -7.39405 461.475C-7.76627 460.799 -7.51983 459.946 -6.84581 459.574C-6.47863 459.37 -6.10139 459.4 -5.84989 459.458L-4.99979 459.662L-4.44649 458.988C-4.11703 458.586 -3.7649 458.223 -3.4455 457.937C2.93502 452.278 9.57709 446.654 16.0004 441.22C18.9555 438.72 21.9106 436.217 24.8481 433.707C40.5869 420.255 59.1047 404.083 77.1321 386.131L79.1592 384.117C87.4083 375.913 95.9694 367.4 103.343 358.175C105.564 355.396 107.948 352.755 110.32 350.102C113.901 346.095 117.083 341.679 120.156 337.416C121.481 335.572 122.812 333.729 124.17 331.916L125.656 329.956C129.376 325.067 133.221 320.012 135.171 314.099C137.188 307.981 138.194 301.198 138.249 293.368C138.292 287.559 138.201 281.254 137.268 274.504C136.448 268.588 135.52 261.886 134.818 255.249C134.507 252.316 134.28 249.376 134.054 246.439C133.734 242.488 133.42 238.406 132.899 234.389Z" fill="#A44343"/>
<path d="M269.956 92.4184C270.24 92.856 269.285 92.0991 269.297 91.8425C269.579 91.9456 269.798 92.1367 269.956 92.4184Z" fill="#3C3C3C"/>
<path d="M368.785 180.626C368.783 180.745 368.763 180.849 368.715 180.922C368.763 180.849 368.758 180.717 368.785 180.626Z" fill="#3C3C3C"/>
<path d="M269.084 91.4883C268.759 91.3548 268.842 91.1331 269.084 91.4883V91.4883Z" fill="#3C3C3C"/>
<path d="M178.544 180.415C178.617 180.387 178.687 180.36 178.712 180.322C178.682 180.367 178.624 180.397 178.544 180.415Z" fill="#3C3C3C"/>
<path d="M192.044 384.177C192.132 383.989 192.238 383.797 192.288 383.614C192.241 383.792 192.155 383.981 192.044 384.177Z" fill="#3C3C3C"/>
<path d="M168.994 300.251C168.784 299.943 168.904 300.121 168.994 300.251V300.251Z" fill="#3C3C3C"/>
<path d="M168.995 300.252C169.017 300.284 169.015 300.282 169.047 300.329C169.055 300.342 169.029 300.304 168.995 300.252Z" fill="#3C3C3C"/>
<path d="M169.856 300.673C169.932 300.786 169.467 300.498 169.447 300.471C169.584 300.355 169.72 300.423 169.856 300.673Z" fill="#3C3C3C"/>
<path d="M239.11 444.989C235.214 451.438 230.65 457.074 226.024 463.019C221.062 469.397 216.234 475.33 209.556 479.955C209.544 479.96 209.194 480.176 209.189 480.119C209.131 479.583 210.55 478.124 210.826 477.742C211.739 476.472 212.665 475.209 213.61 473.962C215.459 471.517 217.418 469.173 219.204 466.679C223.424 460.781 226.844 454.682 230.257 448.314C233.861 441.591 238.104 435.198 242.533 428.994C246.182 423.883 250.043 419.165 254.2 414.472C257.313 410.959 260.927 406.465 263.093 402.994C263.256 402.808 263.458 402.705 263.694 402.69C264.396 403.15 259.499 412.626 259.074 413.507C257.278 417.231 255.42 420.996 253.164 424.472C248.639 431.436 243.416 437.862 239.11 444.989Z" fill="#3C3C3C"/>
<path d="M168.107 299.903C167.663 299.255 168.14 299.951 168.107 299.903V299.903Z" fill="#3C3C3C"/>
<path d="M167.111 299.399C167.133 299.432 167.131 299.429 167.163 299.474C167.173 299.487 167.146 299.449 167.111 299.399Z" fill="#3C3C3C"/>
<path d="M-8.63404 462.149C-9.38099 460.796 -8.89058 459.096 -7.54003 458.347C-6.90374 457.997 -6.19448 457.939 -5.54058 458.095C-5.16585 457.637 -4.76093 457.22 -4.39123 456.893C4.89662 448.656 14.4862 440.707 23.9275 432.641C41.8593 417.315 59.4165 401.785 76.1336 385.138C85.1172 376.19 94.2466 367.276 102.184 357.367C104.5 354.478 106.987 351.731 109.445 348.962C114.424 343.354 118.549 337.059 123.041 331.073C127.072 325.701 131.692 320.133 133.83 313.657C136.01 307.045 136.793 300.285 136.84 293.351C136.886 286.973 136.745 281.01 135.87 274.687C134.982 268.269 134.094 261.833 133.412 255.39C132.678 248.451 132.409 241.489 131.511 234.566C130.684 228.183 129.665 221.84 128.699 215.477C127.724 209.028 126.23 202.708 125.219 196.267C124.21 189.829 122.181 183.396 122.108 176.852C122.04 170.635 122.774 164.747 125.805 159.277C129.537 152.537 134.836 147.16 140.927 142.369C145.54 138.737 150.61 135.744 155.829 133.061C159.531 131.157 163.142 129.077 166.766 127.035C168.549 126.029 170.094 124.631 171.17 122.89C177.633 112.45 182.266 100.65 187.087 89.3905C188.835 85.3061 190.749 81.1866 193.82 77.8944C198.221 73.1814 204.365 69.419 209.521 65.5861C219.103 58.4612 230.325 54.9099 242.221 54.422C251.501 54.0423 260.917 55.3199 269.234 59.7664C274.808 62.7466 281.211 65.986 284.852 71.3932C287.958 76.0032 288.484 82.1599 288.446 87.557C288.439 88.6108 288.006 90.3336 288.834 90.5424C289.661 90.7511 291.671 89.9614 292.614 89.8884C295.43 89.6722 298.232 89.2798 301.061 89.4257C307.389 89.7527 313.486 91.5609 319.413 93.7263C329.697 97.4837 338.955 106.402 344.276 115.916C346.885 120.576 349.09 128.861 349.118 134.203C349.123 135.065 349.08 135.925 348.957 136.768C348.834 137.618 347.292 140.689 347.589 141.302C347.938 142.024 351.376 142.638 352.174 142.985C353.705 143.649 355.171 144.466 356.67 145.201C361.585 147.612 365.556 150.21 369.489 154.001C373.108 157.491 376.156 161.581 379.187 165.58C382.067 169.382 384.526 173.474 386.566 177.785C387.119 178.952 387.71 180.151 388.085 181.381C388.608 183.104 387.954 184.917 388.344 186.519C388.628 187.681 389.099 187.513 390.316 187.963C391.307 188.328 392.27 188.778 393.231 189.213C399.493 192.05 406.427 194.944 411.781 199.318C414.291 201.368 415.833 203.541 417.219 206.408C418.64 209.348 420.465 211.543 421.074 214.858C423.436 227.707 422.075 240.976 422.442 253.941C422.621 260.208 423.028 266.463 423.242 272.731C423.431 278.246 423.526 284.84 420.621 289.747C417.302 295.355 410.179 297.093 405.567 301.296C404.863 301.94 404.322 302.739 403.862 303.577C401.035 308.72 397.999 313.735 395.019 318.788C391.621 324.549 388.513 330.46 385.308 336.325C381.956 342.461 377.688 348.059 372.608 352.866C367.636 357.571 362.616 362.088 357.166 366.22C351.381 370.606 345.355 374.63 339.666 379.155C334.071 383.604 328.548 388.133 322.924 392.55C317.404 396.885 311.627 400.962 306.501 405.771C300.795 411.125 295.835 417.214 290.473 422.903C285.911 427.742 281.719 432.913 277.753 438.254C263.51 457.431 249.942 477.317 236.788 497.238C231.386 505.422 226.399 513.83 220.755 521.858C214.194 531.191 208.621 541.165 202.318 550.669C196.755 559.059 190.797 567.132 184.927 575.301C180.141 581.961 175.689 588.854 171.112 595.66C168.851 599.023 166.711 602.858 164.141 606.102C164.251 606.605 164.274 607.131 164.085 607.646C163.555 609.098 161.95 609.844 160.499 609.314C157.124 608.081 151.372 604.704 143.958 599.729C102.418 571.843 8.87278 493.813 -8.63404 462.149ZM141.83 295.416C141.9 295.403 141.81 302.234 141.785 302.649C141.566 306.26 141.247 309.839 140.233 313.325C138.269 320.075 134.283 326.089 130.13 331.682C125.855 337.436 121.71 343.309 117.133 348.832C113.174 353.605 108.861 358.064 104.903 362.84C97.2067 372.125 88.4621 380.299 79.8583 388.714C69.2752 399.063 58.5312 409.249 47.4753 419.09C42.0907 423.884 37.0532 429.09 31.4724 433.665C25.4742 438.581 19.5237 443.553 13.6412 448.604C9.55182 452.115 5.29901 455.449 1.17946 458.923C0.377177 459.599 -0.850131 461.055 -2.14786 462.094C-1.17959 463.618 -0.0755434 465.225 1.18698 466.925C5.69384 463.357 9.61223 458.774 13.8324 454.954C19.6646 449.673 25.5371 444.431 31.4146 439.198C38.5547 432.84 46.409 427.063 53.0838 420.199C57.0901 416.08 63.9661 409.694 68.2969 405.922C73.6865 401.226 78.5002 395.962 83.7389 391.106C90.8589 384.507 97.8757 377.538 104.696 370.476C109.663 365.335 114.414 359.993 119.112 354.603C124.411 348.522 129.917 342.516 134.202 335.645C138.138 329.335 141.805 322.432 142.821 314.97C143.319 311.308 143.938 307.847 143.608 304.128C143.545 303.436 142.451 295.293 141.83 295.416ZM283.756 80.1931C281.397 70.5482 272.577 64.7889 263.759 61.376C259.989 59.9173 255.965 58.9264 251.924 58.3379C247.326 57.6689 243.911 57.845 239.326 58.6699C231.145 60.1437 223.386 61.8816 216.286 66.2576C213.193 68.1665 210.255 70.2539 207.391 72.5124C204.858 74.5093 201.855 76.4156 199.584 78.6313C199.64 78.6992 199.715 78.7319 199.806 78.7269C199.456 79.2223 198.347 79.411 198.012 79.9115C198.103 80.0095 198.153 80.1277 198.163 80.2686C198.11 80.3465 196.951 80.173 197.23 80.7867C197.21 80.7439 197.746 80.6131 197.472 80.9074C197.147 81.2595 195.704 81.7977 195.548 82.0316C195.432 82.2052 195.724 82.4692 195.485 82.7509C195.153 83.1482 194.808 83.4752 194.499 83.9078C194.054 84.5341 193.727 85.2055 193.4 85.8997C192.195 88.4574 191.232 91.1384 190.261 93.7917C188.506 98.5853 186.225 103.193 184.276 107.918C183.307 110.262 186.003 111.837 186.808 109.734C188.141 106.246 189.464 102.775 191.119 99.4227C191.36 98.9323 192.716 95.7433 193.334 95.8263C194.039 95.9219 193.903 98.0596 193.976 98.623C194.036 98.4645 194.527 97.7553 194.512 97.6849C194.929 99.8151 196.068 104.121 196.139 103.158C196.285 101.113 196.898 99.1335 197.338 97.1391C198.266 92.9291 198.09 88.2386 200.208 84.3932C202.6 80.0498 206.78 76.7426 210.773 73.9384C213.019 72.3615 215.373 70.9506 217.705 69.507C218.462 69.0392 221.527 66.4764 222.44 67.0901C222.146 66.8939 214.649 79.8586 213.955 81.7851C212.569 85.6255 211.817 89.73 210.899 93.6962C210.839 93.9552 209.674 99.6969 209.637 99.6994C210.306 99.6793 212.011 95.361 212.29 94.8027C213.522 92.3506 214.641 89.8507 215.831 87.3784C217.348 84.2297 219.322 81.34 220.941 78.2491C221.729 76.7502 222.415 73.6416 223.947 72.8343C223.992 72.8117 224.012 72.9752 224.02 73.1185C224.352 71.9842 228.773 66.4839 229.251 65.9684C229.269 65.9482 229.852 66.7958 229.88 66.8788C230.046 67.4019 229.772 67.6157 229.704 68.1313C229.588 69.0266 229.281 69.849 229.289 70.7846C229.304 72.8645 229.923 75.133 230.536 77.1098C231.751 81.0055 233.27 82.6553 236.816 84.3605C241.828 86.7699 246.554 89.6948 251.056 92.9542C252.92 94.3047 254.793 95.6704 256.554 97.1543C257.464 97.9213 258.611 99.6491 259.657 100.147C259.333 99.9911 255.198 94.3802 255.251 94.2444C255.264 94.2142 257.434 93.4798 257.675 93.3289C258.266 92.9592 258.842 92.5266 259.408 92.1167C256.126 88.2637 251.71 84.9691 247.077 82.8917C244.62 81.7876 242.191 80.6735 239.811 79.4009C239.319 79.1368 234.719 76.9488 236.333 76.4157C236.914 76.2245 238.969 77.3361 239.447 77.5147C241.31 78.2113 243.164 78.9306 245.012 79.6625C248.365 80.9879 251.75 82.2228 255.105 83.5381C259.041 85.0798 262.771 87.2552 266.098 89.8658C267.693 91.1183 269.775 93.9803 271.053 94.4406C271.025 94.4305 271.495 94.9083 271.5 94.7524C271.508 94.5411 270.281 92.8737 270.248 92.8813C270.607 92.8109 271.518 94.2997 271.857 94.5185C271.402 94.2243 270.605 92.504 270.273 92.0312C269.549 90.9975 268.804 89.984 268.035 88.9855C267.426 88.1958 267.2 88.128 267.411 87.3332C267.733 86.1286 269.285 84.7075 269.855 83.5833C270.955 81.4129 272.665 76.9564 271.035 74.7357C269.863 73.1412 267.187 71.8534 265.469 70.9556C259.275 67.7213 252.246 66.6977 245.357 66.1696C243.358 66.0162 241.351 66.0086 239.369 65.9634C238.919 65.9533 237.968 66.0136 237.583 65.8854C237.656 65.9105 236.446 65.3396 236.648 65.234C238.069 64.487 240.697 64.5147 242.276 64.2355C244.575 63.8281 246.886 63.4936 249.215 63.295C253.206 62.9529 257.326 62.9328 261.252 63.8307C264.373 64.5424 266.998 66.0288 269.697 67.6987C272.132 69.2052 274.981 70.7921 277.089 72.7211C280.964 76.2647 281.528 83.8399 281.113 88.7139C280.849 91.8099 278.957 94.6292 277.224 97.109C276.661 97.9138 272.104 103.135 272.901 103.6C273.344 103.859 276.477 101.123 276.93 100.733C277.798 99.9861 278.444 99.1436 279.136 98.2231C280.325 96.6412 282.028 94.7926 282.911 93.0145C284.641 89.5212 284.646 83.8248 283.756 80.1931ZM344.131 133.971C344.098 131.26 343.879 128.282 343.172 125.664C341.85 120.75 339.284 114.523 335.69 110.748C331.747 106.606 327.431 102.272 322.16 99.8679C317.069 97.5491 311.612 95.9722 306.169 94.7323C302.088 93.8043 298.129 94.003 293.999 94.8556C291.665 95.3384 289.088 95.7785 286.907 96.782C285.285 97.529 284.523 99.209 283.2 100.502C279.77 103.852 275.489 106.253 272.494 110.049C271.04 111.89 269.954 114.005 268.834 116.057C268.442 116.774 267.476 117.991 267.612 118.748C267.665 119.042 269.161 120.85 269.335 120.818C269.908 120.705 271.422 117.108 271.81 116.527C272.594 115.348 273.467 114.513 274.418 113.517C276.842 110.982 279.033 108.404 281.621 105.987C286.429 101.495 292.521 98.5752 299.08 97.6547C303.73 97.0033 307.525 98.7462 311.916 99.9031C315.133 100.751 317.54 101.734 320.294 103.59C323.131 105.504 325.326 107.815 327.844 110.104C329.267 111.399 330.653 112.702 331.835 114.234C332.687 115.338 334.279 116.947 334.775 118.195C334.77 118.182 333.786 117.505 333.781 117.526C333.454 118.484 335.001 121.426 335.28 122.457C335.373 122.8 335.829 126.119 335.957 126.228C335.406 125.767 335.087 124.072 334.785 123.398C334.347 122.422 333.872 121.462 333.356 120.524C332.7 119.324 332.026 118.086 331.04 117.126C329.008 115.149 326.226 113.703 323.847 112.211C321.908 110.997 319.76 109.312 317.655 108.396C316.247 107.785 314.476 107.672 312.93 107.31C310.51 106.741 306.519 106.259 304.183 107.018C302.007 107.725 303.368 110.559 304.079 112.123C304.811 113.728 306.242 113.736 307.296 115.028C308.878 116.97 310.415 118.803 312.402 120.513C314.549 122.362 316.624 124.354 318.171 126.743C319.044 128.091 319.884 129.489 320.61 130.923C320.703 131.107 321.564 133.803 320.97 133.393C320.89 133.335 320.804 132.359 320.661 132.15C320.258 131.572 319.627 131.142 319.079 130.714C317.049 129.13 314.899 127.714 312.894 126.094C309.844 123.63 306.466 120.307 302.767 118.894C300.274 117.941 291.816 112.926 290.222 118.011C289.93 118.939 290.536 120.098 290.358 121.054C290.267 121.535 289.711 122.143 289.681 122.525C289.591 123.677 290.642 125.606 291.273 126.615C293.335 129.917 297.797 132.228 301.014 134.2C304.414 136.285 308.01 138.352 311.69 139.896C313.946 140.842 316.28 141.322 318.694 141.657C319.26 141.735 322.24 141.732 322.738 142.273C323.281 142.864 320.726 144.783 320.206 145.384C319.222 146.521 317.997 147.331 316.949 148.422C315.382 150.049 313.843 151.704 312.273 153.331C311.876 153.744 308.77 156.334 308.893 156.958C309.562 157.647 310.372 158.206 311.129 158.794C312.024 156.161 314.73 154.478 316.725 152.7C319.358 150.354 321.908 148.11 324.863 146.186C330.162 142.738 336.412 143.211 342.141 141.046C344.608 140.115 344.158 136.33 344.131 133.971ZM379.758 174.352C375.364 168.608 371.861 162.214 366.838 156.951C361.861 151.732 355.237 148.025 348.351 145.812C345.137 144.778 342.833 144.242 339.533 145.087C338.663 145.309 328.852 148.216 328.87 148.269C328.87 148.269 327.68 148.676 325.917 149.833C325.281 150.251 324.644 150.723 324.048 151.191C322.401 152.481 320.769 153.837 319.3 155.328C317.66 156.993 315.89 158.621 314.683 160.63C313.634 162.373 314.856 162.584 315.744 164.287C317.394 162.187 319.061 160.001 320.875 158.065C322.932 155.869 325.286 152.944 328.017 151.654C331.52 149.999 335.519 149.916 339.302 149.69C341.99 149.529 344.249 149.267 346.739 150.369C352.993 153.135 358.66 157.35 362.07 163.308C363.549 165.889 364.857 168.59 365.865 171.377C366.408 172.878 369.356 178.786 368.785 180.627C368.83 179.047 365.214 173.627 364.696 172.596C363.265 169.749 361.778 167.011 359.698 164.579C357.717 162.262 355.617 160.089 352.802 158.827C351.482 158.233 349.573 157.393 348.064 157.534C346.874 157.645 346.947 158.042 346.065 158.663C343.897 160.192 341.077 161.063 338.726 162.32C337.969 162.725 337.685 162.909 337.189 163.542C336.623 164.267 336.281 166.248 335.484 166.58C334.357 167.051 332.64 164.493 331.772 163.648C331.5 163.384 327.622 159.481 327.253 160.029C326.999 160.406 331.963 166.802 332.516 167.539C334.687 170.426 337.267 172.73 339.752 175.315C342.609 178.285 344.8 181.826 348.046 184.424C349.372 185.486 350.81 186.424 352.259 187.301C352.91 187.696 355.307 188.461 355.619 189.054C355.501 189.077 355.388 189.115 355.282 189.168C355.272 189.152 356.107 189.703 356.062 189.708C352.79 190.199 346.99 186.147 346.394 185.669C344.033 183.775 341.326 182.357 338.824 180.657C335.889 178.66 332.944 176.625 330.172 174.405C328.641 173.177 327.278 171.857 326.121 170.265C326.005 170.104 324.139 167.715 323.792 168.233C323.822 168.188 326.812 173.557 327.351 174.364C329.426 177.463 332.167 180.194 334.518 183.086C337.079 186.235 340.034 189.004 343.265 191.456C343.683 191.773 347.704 194.56 349.92 195.686C350.506 195.986 351.635 196.64 351.484 196.813C350.519 197.925 346.879 196.74 345.685 196.552C343.796 196.255 341.917 196.006 340.044 195.626C337.305 195.073 334.473 194.497 331.679 194.328C329.239 194.18 327.393 195.827 325.306 196.946C323.088 198.133 321.305 199.512 319.486 201.28C314.026 206.586 309.869 213.115 304.708 218.721C302.975 220.605 300.893 222.247 299.233 224.184C298.134 225.464 297.447 227.302 296.839 228.892C294.935 233.882 294.93 239.012 295.938 244.148C292.749 242.825 289.699 240.423 286.94 238.376C284.483 236.555 282.425 232.921 280.607 231.573C280.589 231.56 279.951 230.632 279.958 230.675C280.27 232.591 282.269 234.641 283.394 236.082C284.832 237.931 286.293 239.691 288.092 241.198C291.253 243.848 294.58 245.775 298.089 247.855C299.623 248.763 304.849 250.656 302.347 252.734C299.281 255.279 293.527 254.16 290.109 253.073C285.939 251.748 282.702 249.258 279.596 246.187C276.711 243.335 273.47 239.721 272.426 235.75C271.681 232.923 271.269 229.792 271.548 226.85C271.852 223.663 274.609 220.761 276.467 218.334C280.657 212.864 285.303 207.806 289.369 202.22C288.338 202.173 287.272 202.049 286.241 202.112C284.888 202.198 285.137 202.057 284.417 203.319C283.293 205.294 282 207.175 280.728 209.054C277.815 213.352 274.637 216.817 271.033 220.514C267.036 224.616 267.494 232.342 269.269 237.332C271.224 242.822 275.343 248.418 279.744 252.233C285.071 256.889 293.667 259.077 300.528 257.11C308.136 254.929 313.543 248.421 319.162 243.255C324.634 238.222 329.825 232.29 335.957 228.077C339.325 225.763 342.697 223.701 345.843 221.06C348.212 219.073 349.875 216.765 351.703 214.28C355.584 209.008 359.625 203.931 363.939 199.011C366.008 196.652 368.109 194.029 370.908 192.515C373.87 190.913 377.069 189.731 380.208 188.524C382.517 187.636 383.236 185.629 383.686 183.127C384.31 179.701 381.697 176.884 379.758 174.352ZM285.992 150.188C285.617 151.302 284.94 152.336 284.204 153.244C282.931 154.808 281.392 155.857 279.609 156.742C277.981 157.549 276.281 158.228 274.561 158.814C273.183 159.285 271.427 159.393 270.132 160.011C269.023 160.542 269.096 160.499 269.453 161.963C269.84 163.55 270.653 165.049 271.453 166.457C273.724 170.451 276.608 173.859 280.001 176.942C282.015 178.745 284.251 180.508 286.598 181.859C289.845 183.728 293.366 183.788 297 183.265C303.564 182.319 308.405 178.522 311.504 172.667C312.862 170.104 313.634 166.409 312.032 164.096C310.314 161.613 307.243 159.679 304.746 157.921C303.473 157.023 286.58 147.414 286.434 147.633C286.085 148.158 286.215 149.529 285.992 150.188ZM283.12 145.764C279.566 143.103 275.942 141.785 272.587 145.153C271.91 145.832 269.959 147.622 269.757 148.691C269.591 149.567 270.718 151.951 271.115 152.59C273.178 155.53 277.991 154.066 280.413 152.305C281.93 151.201 283.529 149.785 283.899 147.902C284.163 146.559 284.07 146.476 283.12 145.764ZM278.99 201.317C276.897 200.97 276.583 200.611 275.401 202.442C274.01 204.589 272.564 206.715 270.882 208.646C269.139 210.646 267.499 212.861 264.71 213.012C263.337 213.085 262.182 212.806 260.854 212.461C260.593 212.393 256.508 211.564 256.476 211.395C257.98 212.859 260.653 213.975 262.575 214.836C265.633 216.206 267.351 216.189 269.954 213.804C273.613 210.444 276.148 205.397 278.99 201.317ZM158.381 602.128C159.387 600.31 160.999 598.23 161.47 597.423C162.757 595.217 163.947 592.911 165.323 590.761C167.058 588.05 169.374 585.64 171.414 583.14C176.449 576.969 180.594 570.148 185.002 563.518C198.254 543.59 212.318 524.239 225.589 504.331C241.361 480.667 256.735 456.591 273.63 433.702C277.483 428.484 281.777 423.615 286.331 418.995C291.215 414.043 295.898 408.837 300.853 403.96C305.666 399.224 310.976 395.037 316.161 390.731C322.804 385.218 328.827 379.235 335.897 374.25C339.226 371.901 342.345 369.271 345.682 366.932C348.559 364.917 351.653 363.215 354.472 361.115C360.196 356.852 365.231 351.51 370.475 346.681C372.859 344.486 375.477 342.391 377.318 339.7C379.687 336.236 381.614 332.484 383.616 328.805C385.326 325.664 387.056 322.53 388.819 319.419C389.745 317.784 390.645 316.137 391.493 314.459C391.79 313.871 392.909 312.321 392.813 311.582C392.796 311.434 378.573 321.936 378.518 321.901C378.43 321.841 391.742 306.099 393.002 304.859C395.338 302.561 398.185 300.785 400.869 298.927C403.907 296.824 406.653 294.369 409.39 291.895C412.662 288.935 416.077 285.776 416.995 281.281C417.593 278.354 417.729 275.389 418.056 272.429C418.22 270.945 419.812 264.891 417.43 264.756C416.381 264.695 414.734 265.91 413.869 266.363C412.058 267.308 410.305 268.364 408.456 269.237C407.735 269.577 399.772 272.632 399.443 270.955C399.601 271.767 409.405 265.676 410.119 265.128C412.221 263.518 413.22 261.76 414.57 259.479C415.589 257.761 416.213 255.82 416.275 253.823C416.333 251.937 416.547 250.025 416.595 248.124C416.648 246.021 416.557 243.934 416.434 241.839C416.401 241.278 416.889 235.474 416.595 235.26C416.887 235.468 409.208 242.508 409.301 243.152C409.178 242.297 410.871 239.822 411.215 239.02C412.013 237.164 412.697 235.265 413.501 233.414C415.018 229.92 416.444 225.725 416.459 221.888C416.474 217.826 414.751 213.41 413.388 209.657C412.413 206.974 411.816 205.626 409.616 203.936C403.889 199.539 397.7 195.256 391.226 192.027C389.106 190.971 387.942 190.825 385.595 190.963C382.326 191.157 380.678 192.193 377.96 193.931C375.12 195.744 371.33 197.49 369.157 200.133C368.109 201.411 367.369 203.181 366.745 204.688C366.333 205.686 364.857 208.762 365.377 209.8C365.096 209.24 370.123 202.799 370.093 202.784C369.96 202.824 369.826 202.847 369.685 202.847C369.565 200.94 373.581 198.614 374.889 197.877C377.22 196.562 379.617 195.178 382.243 194.575C386.802 193.526 390.789 195.422 394.3 198.463C397.358 201.109 399.767 204.476 402.383 207.537C403.809 209.207 404.933 210.897 405.846 212.891C406.155 213.57 408.049 216.873 407.571 217.582C407.86 217.149 405.989 214.67 405.758 214.275C404.968 212.934 404.254 211.619 403.142 210.47C400.786 208.035 397.73 206.164 394.984 204.217C394.036 203.546 393.017 202.572 391.94 202.188C390.009 201.494 388.216 202.537 386.42 202.882C383.548 203.435 380.128 199.124 376.954 200.671C377.575 200.369 380.326 201.992 380.963 202.381C382.597 203.38 384.059 204.667 385.495 205.93C388.311 208.402 391.01 211.008 393.578 213.739C395.363 215.64 397.026 217.356 397.853 219.853C398.007 220.318 399.898 228.072 399.214 228.085C399.536 228.077 397.795 223.062 397.642 222.75C396.857 221.166 395.937 219.627 394.747 218.314C392.496 215.834 389.647 213.988 386.835 212.22C385.882 211.621 384.39 210.278 383.256 210.092C381.903 209.871 380.243 211.189 379.134 211.916C376.647 213.548 376.119 216.42 375.304 219.144C374.29 222.519 374.004 223.708 375.887 226.817C378.299 230.796 381.34 232.838 384.715 235.919C386.682 237.714 388.181 238.743 390.668 239.842C391.908 240.388 402.287 242.583 402.305 242.075C402.265 243.122 397.212 243.32 396.618 243.343C394.154 243.433 391.624 243.333 389.192 242.91C386.538 242.45 383.968 241.507 381.463 240.549C380.263 240.091 379.139 239.611 377.859 239.445C377.203 239.359 375.208 238.889 374.748 239.07C374.215 239.279 373.621 239.646 372.638 239.772C371.692 239.892 370.764 240.003 369.841 240.26C367.91 240.793 365.938 241.686 364.137 242.528C360.433 244.261 358.318 248.265 355.493 251.071C353.607 252.948 350.853 254.565 349.895 257.095C348.436 260.945 347.775 264.906 347.435 268.993C344.873 267.872 341.915 266.068 339.78 264.225C338.444 263.073 337.207 261.35 336.12 259.99C335.23 258.876 334.41 257.719 333.623 256.529C333.512 256.36 332.041 253.931 331.807 254.517C331.777 254.595 333.912 258.252 334.111 258.647C335.323 261.031 336.998 263.131 338.736 265.148C340.134 266.77 341.729 268.211 343.512 269.398C345.801 270.925 348.067 272.547 350.473 273.867C351.761 274.574 353.142 275.122 354.528 275.608C355.305 275.882 360.765 276.943 360.845 277.363C360.943 277.866 353.881 278.688 352.91 278.711C348.278 278.817 343.348 278.392 339.091 276.46C331.772 273.14 327.263 268.04 324.154 260.601C323.098 258.071 322.195 255.307 322.6 252.568C323.06 249.452 327.406 246.225 329.614 244.226C332.154 241.927 334.84 239.739 337.516 237.604C340.512 235.212 343.99 233.207 346.719 230.516C348.929 228.338 350.863 225.823 352.752 223.371C353.484 222.421 356.821 219.056 356.492 217.703C356.484 217.675 351.225 222.951 350.808 223.442C348.851 225.746 346.583 227.843 344.141 229.631C341.754 231.379 339.103 232.702 336.764 234.53C334.355 236.414 332.232 238.647 329.996 240.73C326.825 243.682 323.246 246.466 320.535 249.867C319.443 251.235 318.704 253.617 318.528 255.561C318.332 257.696 319.67 259.899 320.573 261.778C322.761 266.332 325.334 270.736 329.088 274.167C331.111 276.015 333.553 278.429 336.231 279.202C344.4 281.561 353.338 281.181 361.632 280.992C364.479 280.927 367.258 280.067 369.597 278.44C371.733 276.953 373.958 275.205 375.638 273.646C376.654 272.703 377.701 270.568 378.546 269.355C379.582 267.869 380.588 266.355 381.916 265.113C384.438 262.751 387.409 260.628 390.18 258.599C393.699 256.023 397.37 253.72 401.213 251.549C402.458 250.845 404.432 249.786 403.343 252.05C402.574 253.644 400.821 254.801 399.48 255.847C395.424 259.014 391.978 263.309 388.43 267.004C387.517 267.955 384.242 270.932 384.554 272.24C384.843 273.45 389.267 275.384 390.497 275.952C395.389 278.211 400.997 280.645 406.377 280.879C407.229 280.917 409.769 280.914 408.552 281.865C407.672 282.554 405.22 282.051 404.334 281.996C399.594 281.704 394.418 281.352 389.529 280.768C387.954 280.58 386.38 280.743 384.823 281.043C383.405 281.317 380.925 281.153 379.682 281.885C379.079 282.24 378.802 282.936 378.106 283.379C376.594 284.335 374.479 284.742 372.857 285.557C371.926 286.025 371.028 286.281 370.89 287.159C370.812 287.662 371.197 289.07 371.189 289.304C371.172 289.757 365.684 291.007 362.706 292C359.092 293.208 355.581 294.807 351.862 295.697C348.341 296.54 344.608 295.967 341.067 295.564C338.449 295.267 336.397 294.918 334.083 296.032C332.011 297.03 330.555 298.979 329.878 301.178C328.611 305.305 328.819 309.796 329.063 314.052C329.174 315.973 329.305 317.9 329.526 319.811C329.576 320.241 329.622 323.367 329.913 323.591C329.488 323.267 329.104 321.878 328.837 321.353C328.145 319.995 327.519 318.556 326.895 317.16C325.661 314.404 324.368 311.539 323.596 308.612C322.61 304.885 322.195 301.007 321.247 297.257C321.036 296.422 318.878 290.227 319.725 289.357C318.9 290.205 319.278 293.265 319.27 294.483C319.25 298.092 319.637 301.65 319.828 305.252C320.085 310.081 320.839 314.859 321.176 319.67C321.378 322.505 321.876 325.369 322.386 328.158C323.05 331.77 325.58 334.934 326.981 338.331C329.363 344.106 329.021 349.76 328.412 355.831C328.477 355.169 326.762 353.094 326.443 352.496C325.774 351.246 325.283 349.991 324.805 348.666C323.993 346.412 322.459 344.966 320.92 343.218C319.423 341.515 318.289 339.541 317.011 337.655C315.709 335.736 313.8 333.799 312.877 331.659C311.987 329.592 312.361 326.981 312.283 324.791C312.19 322.145 311.871 319.552 311.411 316.947C311.174 315.624 307.653 299.41 306.992 299.54C307.837 299.374 308.239 318.337 308.176 320.156C308.025 324.479 307.429 328.759 307.299 333.083C307.281 333.694 307.349 343.779 307.701 343.709C306.124 344.02 303.355 327.776 303.149 325.993C302.812 323.078 303.078 320.005 302.415 317.148C301.577 313.541 300.149 310.091 299.532 306.414C298.901 302.649 298.066 298.909 296.618 295.375C295.368 292.33 295.184 290.444 293.758 288.416C293.408 287.919 291.165 284.277 290.556 284.398C290.114 284.486 287.855 292.156 287.435 293.042C286.457 295.106 285.368 297.118 284.271 299.125C283.492 300.556 282.702 301.985 281.902 303.403C281.666 303.823 280.773 306.127 280.23 306.235C280.75 306.132 281.17 298.547 281.46 297.149C282.141 293.864 282.657 290.532 283.047 287.202C283.567 282.758 283.927 278.236 283.927 273.759C283.927 273.055 283.029 262.557 282.707 262.733C281.96 263.138 281.973 268.168 281.89 268.998C281.646 271.468 281.316 273.711 280.569 276.08C278.839 281.563 278.1 287.31 276.161 292.717C274.981 296.009 273.399 299.183 271.752 302.272C270.98 303.715 269.347 309.359 267.667 309.688C267.512 309.718 269.337 304.875 269.486 304.46C270.253 302.309 270.645 300.091 271.07 297.855C271.983 293.044 273.442 288.522 273.605 283.593C273.779 278.379 274.214 272.587 273.286 267.439C272.785 264.662 271.812 263.878 269.921 261.949C268.113 260.103 266.926 257.807 265.449 255.712C262.871 252.052 260.14 248.471 257.61 244.784C254.979 240.951 254.934 236.925 254.831 232.438C254.745 228.726 253.138 225.197 249.014 227.576C245.48 229.614 243.292 232.476 238.964 233.001C235.199 233.459 231.238 232.083 227.458 231.935C225.026 231.839 222.569 231.877 220.147 232.129C219.46 232.199 215.6 233.441 215.17 233.152C215.009 233.044 217.939 232.046 217.981 232.028C219.802 231.364 222.181 230.184 224.405 229.586C227.911 228.64 231.291 228.188 234.809 227.526C236.534 227.202 238.524 227.013 240.176 226.503C243.745 225.404 245.862 222.215 247.935 219.41C248.34 218.862 250.953 216.43 250.965 215.769C250.988 214.705 247.397 213.379 246.718 213.05C243.239 211.36 239.892 209.388 236.087 208.528C232.279 207.668 228.351 208.058 224.563 207.25C222.418 206.793 220.303 206.121 218.195 205.52C217.838 205.417 214.541 204.107 214.372 204.182C214.983 203.905 217.556 204.7 218.288 204.735C220.205 204.833 222.083 204.703 223.992 204.627C227.888 204.471 231.66 203.611 235.531 203.387C236.534 203.329 237.95 203.694 237.422 202.696C237.005 201.903 233.054 201.531 232.168 201.408C229.845 201.084 227.45 200.958 225.104 200.963C224.45 200.965 220.559 201.627 220.285 201.144C220.408 201.36 227.302 197.89 227.999 197.248C230.126 195.294 226.97 193.129 225.375 191.725C221.07 187.943 216.746 188.848 211.402 189.517C201.216 190.792 190.764 193.378 182.895 200.332C185.797 196.906 189.404 193.868 193.048 191.27C195.316 189.653 197.814 188.317 200.324 187.115C201.083 186.751 206.199 184.077 206.687 184.382C205.93 183.911 203.827 184.017 202.929 184.052C200.756 184.138 198.608 184.633 196.443 184.819C195.319 184.915 192.887 185.496 191.808 184.96C190.51 184.314 191.116 182.445 191.066 181.042C190.807 173.975 186.959 166.915 181.783 162.157C186.137 163.424 189.851 166.341 193.609 168.768C195.51 169.998 197.406 171.221 199.433 172.234C200.869 172.951 202.303 173.673 203.734 174.405C204.411 174.752 206.294 176.22 207.081 176.067C206.868 176.11 204.033 173.064 203.626 172.73C202.255 171.61 200.812 170.67 199.27 169.815C196.81 168.454 194.31 166.912 192.218 165.019C191.692 164.543 182.03 154.881 181.864 155.11C182.143 154.725 185.277 155.668 185.782 155.776C187.701 156.194 189.449 156.712 191.443 156.382C195.598 155.693 197.854 152.984 199.504 149.315C201.191 145.558 201.586 141.463 202.962 137.608C203.284 136.707 206.468 127.452 207.23 127.55C206.604 127.47 204.458 145.704 204.74 147.753C205.225 151.274 205.648 155.281 207.484 158.397C208.626 160.333 210.089 162.096 211.503 163.837C212.521 165.092 213.545 166.344 214.604 167.566C214.921 167.933 216.02 169.591 216.669 169.639C216.774 169.646 215.18 166.935 215.059 166.739C213.681 164.513 212.474 162.162 211.42 159.792C210.414 157.532 209.672 155.167 209.176 152.745C208.973 151.747 208.777 150.701 208.731 149.695C208.661 148.141 208.294 148.749 209.551 148.231C210.597 147.801 211.772 147.839 212.831 147.303C214.081 146.672 213.63 146.991 214.015 145.87C214.365 144.853 214.201 143.551 214.465 142.464C214.719 141.426 215.082 140.399 215.409 139.381C216.128 137.148 216.85 134.899 217.768 132.736C218.178 131.771 223.743 120.363 224.385 120.793C224.017 120.546 220.33 132.716 220.152 133.549C219.02 138.775 218.477 144.169 218.17 149.506C217.687 157.964 219.095 167.003 224.053 174.055C229.633 181.997 237.04 186.997 246.076 189.826C257.716 193.471 269.116 195.956 281.274 197.404C283.441 197.663 285.627 197.756 287.807 197.804C291.404 197.882 296.514 198.227 299.56 196.843C299.741 196.76 304.017 195.317 305.548 194.331C307.61 193.005 309.607 191.23 311.074 189.301C312.547 187.362 314.122 185.259 315.125 183.023C315.839 181.429 316.242 179.653 316.587 177.948C316.793 176.922 317.034 175.858 317.1 174.815C317.107 174.691 317.1 173.001 316.934 173.245C316.773 173.487 317.162 174.198 316.898 174.377C316.825 174.286 316.732 174.234 316.622 174.218C315.983 175.672 315.955 177.234 315.261 178.743C313.938 181.615 312.215 184.424 310.055 186.746C306.217 190.865 300.84 193.803 295.312 194.796C290.383 195.681 285.443 195.043 280.494 194.701C275.748 194.371 271.093 193.911 266.43 192.9C261.868 191.911 257.359 190.634 252.814 189.542C248.078 188.406 243.521 186.653 239.22 184.366C235.214 182.236 230.813 179.601 228.132 175.79C226.024 172.798 223.399 169.327 222.634 165.705C221.912 162.282 221.284 158.61 221.14 155.115C221.022 152.217 221.656 149.209 222.02 146.332C226.995 149.556 231.545 153.306 236.404 156.707C236.987 157.114 238.008 157.584 238.34 158.258C238.926 159.448 238.31 162.051 238.426 163.376C238.567 164.988 238.898 166.57 239.349 168.122C239.56 168.849 240.164 172.33 240.875 172.808C240.538 172.581 240.807 168.726 240.82 167.994C240.853 166.155 241.031 164.325 241.336 162.511C241.906 159.093 242.824 155.673 244.037 152.426C245.038 149.745 246.438 147.258 247.89 144.801C248.144 144.371 249.648 141.164 250.276 141.461C250.563 141.597 249.225 144.127 249.157 144.278C247.532 147.954 246.169 152.165 245.868 156.199C245.603 159.72 247.288 163.326 248.953 166.329C250.382 168.904 252.666 169.812 255.216 171.2C257.328 172.352 260.349 174.382 262.758 174.608C262.718 174.603 261.546 171.107 261.478 170.886C260.915 169.053 260.55 167.164 260.301 165.263C260.08 163.57 258.973 158.867 260.143 157.217C260.153 157.202 260.54 159.247 260.656 159.287C260.703 159.189 260.776 159.116 260.874 159.071C261.44 162.458 261.586 165.509 263.4 168.555C265.07 171.356 267.081 174.191 269.679 176.193C271.249 177.402 285.765 188.584 286.683 187.216C286.671 187.236 279.531 181.882 279.433 181.962C279.578 182.007 279.729 182.045 279.88 182.075C279.827 182.105 272.018 174.415 271.385 173.808C268.824 171.359 265.801 168.776 264.423 165.424C262.907 161.729 263.528 157.708 264.909 154.076C266.196 150.688 267.278 147.258 269.825 144.589C271.777 142.547 274.088 140.271 277.114 140.374C280.713 140.498 284.43 143.251 287.393 145.007C289.759 146.41 292.284 147.638 294.603 148.875C295.79 149.509 298.999 152.585 300.445 152.3C300.491 152.293 298.554 150.55 298.519 150.52C297.166 149.431 295.8 148.357 294.452 147.263C285.695 140.168 276.178 133.662 267.831 126.097C261.762 120.594 258.686 112.732 252.13 107.624C247.15 103.744 242.641 100.117 236.127 99.2291C229.747 98.3589 223.457 100.728 217.654 103.135C214.772 104.329 211.993 105.758 209.317 107.36C199.735 113.099 190.04 118.632 180.385 124.223C172.176 128.976 163.904 133.654 155.275 137.59C146.767 141.471 140.268 148.002 134.235 154.883C128.951 160.909 127.022 167.574 126.803 175.484C126.604 182.702 128.873 190.015 129.982 197.12C131.008 203.697 132.507 210.218 133.626 216.792C134.916 224.375 136.32 231.927 137.223 239.573C138.007 246.223 138.022 253.026 139.622 259.549C141.33 266.519 142.044 273.641 143.518 280.653C146.684 295.723 157.493 308.413 170.486 316.237C178.219 320.895 186.635 324.429 194.952 327.809C198.862 329.398 202.834 330.839 206.905 331.948C208.57 332.401 210.25 332.801 211.945 333.113C212.197 333.158 215.997 334.018 216.085 333.888C216.382 333.447 209.989 331.536 209.501 331.39C205.698 330.243 202.079 328.795 198.397 327.326C192.135 324.828 186.066 321.919 180.093 318.788C174.54 315.875 169.394 312.246 164.777 308.003C161.844 305.307 158.821 302.558 156.332 299.432C155.66 298.592 151.623 293.286 152.225 292.581C152.028 292.81 159.852 297.548 160.75 297.948C163.502 299.178 166.324 300.217 169.201 301.105C169.691 301.256 173.536 302.694 174.339 302.538C173.338 302.511 168.368 299.711 167.792 299.437C164.12 297.684 160.594 295.426 157.36 292.961C151.872 288.776 148.382 283.661 146.639 277.046C144.896 270.432 143.754 263.88 142.632 257.145C141.636 251.167 140.746 245.347 140.329 239.294C140.218 237.707 138.407 221.347 138.352 221.359C138.518 221.319 141.166 224.216 141.531 224.516C142.894 225.632 144.373 226.648 145.93 227.476C148.588 228.887 151.407 229.742 154.377 230.132C147.567 225.315 140.341 219.71 137.082 211.747C134.26 204.851 133.239 197.185 132.085 189.859C130.953 182.681 128.991 173.484 132.178 166.601C135.706 158.978 142.743 152.786 149.252 147.778C156.503 142.203 165.3 139.429 172.495 133.981C172.131 134.507 172.045 135.231 171.748 135.689C171.431 136.179 170.835 136.466 170.619 137.009C170.561 137.158 170.939 137.497 170.868 137.625C170.199 138.84 168.937 139.622 167.765 140.5C164.852 142.683 163.192 145.867 160.904 148.686C159.44 150.49 157.647 152.134 156.656 154.27C156.113 155.437 155.899 156.556 155.864 157.821C155.849 158.329 155.977 158.802 155.871 159.305C155.811 159.589 155.308 159.647 155.235 159.996C154.845 161.895 157.197 165.097 158.127 166.623C158.711 167.579 159.246 168.371 160.104 169.098C160.23 169.204 163.14 171.377 163.054 171.432C162.118 172.03 157.058 168.867 156.148 168.416C155.554 168.122 149.297 165.255 149.536 164.895C148.656 166.211 160.786 174.115 162.443 174.918C165.038 176.173 167.629 177.413 170.37 178.325C171.132 178.579 177.362 180.685 178.534 180.405C177.847 180.667 175.267 180.491 174.905 180.503C173.333 180.556 171.753 180.629 170.179 180.569C168.781 180.516 167.385 180.345 166.012 180.068C165.137 179.892 163.25 178.989 162.408 179.186C161.208 179.465 162.071 181.592 162.858 182.382C166.082 185.619 172.365 185.227 176.477 185.591C178.617 185.78 180.8 186.082 182.9 186.537C183.466 186.658 189.532 188.584 189.68 188.36C189.411 188.76 181.622 187.887 180.679 187.93C176.811 188.106 173.008 188.891 169.148 189.097C166.527 189.238 164.141 188.743 161.583 188.343C159.603 188.033 157.592 187.485 155.72 186.771C155.424 186.658 151.918 185.239 151.928 184.97C151.9 185.727 155.698 187.631 156.321 187.986C157.798 188.833 159.422 189.794 161.065 190.282C161.983 190.553 163.109 190.415 163.786 191.187C164.334 191.816 164.395 193.106 164.903 193.845C166.892 196.748 170.83 195.209 173.665 194.708C174.258 194.602 181.18 193.795 181.298 193.478C180.888 194.572 176.844 195.742 175.893 196.177C173.081 197.464 170.247 198.702 167.392 199.891C163.175 201.647 158.917 203.355 154.516 204.6C158.117 204.801 162.42 204.444 165.77 205.867C167.382 206.551 168.23 208.739 169.666 209.884C171.359 211.232 174.007 212.517 176.082 213.166C180.088 214.423 184.376 213.301 188.38 212.655C191.197 212.2 194.039 211.838 196.843 211.302C198.153 211.05 199.511 210.799 200.756 210.309C200.884 210.258 201.82 209.474 201.689 209.469C202.912 209.514 199.911 211.393 199.843 211.433C198.405 212.26 196.921 213.047 195.404 213.724C191.732 215.364 187.739 216.473 183.82 217.335C179.904 218.198 175.833 218.792 171.819 218.854C170.078 218.882 168.341 218.792 166.605 218.661C165.436 218.573 164.256 218.404 163.082 218.397C163.238 218.397 161.163 218.392 161.688 218.744C162.166 219.063 164.309 219.018 165.094 219.302C166.791 219.918 168.476 220.426 170.267 220.809C171.784 221.133 174.968 221.09 175.471 222.328C175.762 223.044 175.576 224.357 175.792 225.202C176.099 226.389 176.529 227.576 176.892 228.751C177.822 231.792 179.095 231.507 182.012 231.397C185.176 231.276 188.305 231.03 191.421 230.446C194.406 229.888 197.24 228.952 200.153 228.12C201.405 227.763 202.67 227.473 203.91 227.068C204.725 226.804 205.912 226.012 206.765 225.954C206.339 225.982 205.439 227.101 205.059 227.395C204.378 227.923 203.681 228.424 202.902 228.904C201.692 229.651 200.515 230.471 199.242 231.107C195.193 233.13 190.608 234.417 186.31 235.793C182.618 236.975 178.843 238.066 174.947 238.258C173.28 238.338 171.582 238.411 169.92 238.273C167.978 238.114 165.428 237.214 163.522 237.845C166.437 238.929 169.206 240.209 172.211 241.064C173.403 241.404 176.582 241.703 177.276 242.624C177.918 243.476 177.913 245.476 178.209 246.519C178.572 247.797 179.019 249.027 179.482 250.269C180.546 253.129 181.401 256.081 182.897 258.742C185.131 262.716 189.947 266.38 194.665 266.481C197.854 266.549 201.055 266.488 204.237 266.212C205.957 266.061 207.675 265.87 209.383 265.606C209.926 265.523 213.326 265.369 213.598 264.964C213.256 265.475 212.471 265.912 211.654 266.282C209.855 267.092 206.82 268.188 204.931 268.757C202.001 269.642 199.094 270.404 196.088 271C188.986 272.411 180.817 270.852 174.256 267.907C177.737 270.027 181.69 272.087 185.505 273.508C190.669 275.429 196.76 275.406 202.17 274.961C207.705 274.506 213.58 273.694 218.937 272.233C223.363 271.025 226.915 268.299 231.024 266.516C231.814 266.174 233.876 265.525 235.063 264.826C235.367 264.647 238.592 262.51 238.567 262.386C238.69 263.018 236.539 264.62 236.14 265.002C234.61 266.458 233.031 267.867 231.416 269.227C227.875 272.212 223.99 274.939 219.787 276.915C217.984 277.763 198.236 284.777 198.113 284.403C200.052 290.22 203.792 295.323 207.549 300.209C211.03 304.736 215.461 307.789 220.783 309.935C226.653 312.301 233.119 310.443 238.934 308.828C241.924 307.998 244.854 306.947 247.585 305.473C249.404 304.492 251.159 303.378 252.806 302.128C253.005 301.977 256.116 299.747 256.116 299.711C256.149 300.891 253.674 303.31 252.98 304.191C251.665 305.853 250.281 307.44 248.717 308.871C245.717 311.617 242.178 314.346 238.365 315.86C235.44 317.02 232.38 318.209 229.319 318.948C227.616 319.361 225.894 319.708 224.171 320.037C223.6 320.148 220.217 320.329 219.936 320.812C219.687 321.237 226.756 321.868 227.169 321.873C230.747 321.919 234.372 321.652 237.893 321.001C240.936 320.437 243.833 319.504 246.614 318.146C246.969 317.973 250.872 315.131 251.162 315.221C251.026 315.179 250.392 317.188 250.329 317.281C249.844 318.003 243.534 323.423 243.697 323.694C245.02 325.91 248.523 326.637 250.867 326.896C254.014 327.243 257.011 326.757 259.977 325.699C262.527 324.788 264.536 323.131 266.324 321.126C267.366 319.96 269.373 316.846 270.987 316.527C270.851 316.552 268.814 321.848 268.528 322.381C267.381 324.507 266.194 326.654 264.72 328.573C262.622 331.302 260.112 333.256 257.145 334.916C253.121 337.17 249.044 339.249 244.585 340.492C242.533 341.065 240.445 341.518 238.345 341.878C236.824 342.139 234.555 341.966 233.127 342.537C233.705 342.305 236.21 342.69 237.098 342.662C239.573 342.582 242.05 342.449 244.519 342.257C247.278 342.044 250.002 341.674 252.688 340.99C255.812 340.195 258.322 338.475 261.239 337.396C261.232 337.398 261.888 343.241 261.969 343.812C262.255 345.839 262.632 347.68 263.731 349.425C265.258 351.849 267.104 354.312 269.277 356.195C271.012 357.699 273.032 358.831 274.465 360.66C272.733 361.663 270.939 362.438 269.003 362.966C268.306 363.157 261.84 364.492 261.694 364.067C261.908 364.686 266.397 364.636 266.976 364.661C269.4 364.761 271.955 364.719 274.299 364.04C279.158 362.629 282.332 359.286 284.933 355.144C286.764 352.232 287.614 349.83 288.431 346.457C289.027 343.993 289.709 341.505 290.164 339.01C290.35 337.989 290.556 336.918 290.712 335.907C290.79 335.417 290.72 334.134 291.024 333.689C290.707 334.152 291.049 338.055 291.009 338.998C290.898 341.621 290.876 344.239 290.627 346.855C290.156 351.802 289.412 357.199 287.289 361.731C285.255 366.079 282.803 368.982 278.326 370.611C277.398 370.948 267.919 373.866 268.055 374.165C268.037 374.125 272.26 374.256 272.499 374.147C272.456 373.976 272.34 373.883 272.152 373.871C272.68 373.084 277.325 373.232 278.434 372.973C279.878 372.638 281.226 371.922 282.589 371.323C284.895 370.312 287.292 369.371 289.236 367.729C290.234 366.887 290.999 365.949 291.668 364.834C291.789 364.633 293.451 360.501 293.517 360.491C294.485 360.335 291.643 367.787 291.162 368.542C289.955 370.445 288.675 372.389 287.096 374.009C286.263 374.864 284.1 375.883 283.59 376.939C283.248 377.646 283.743 379.824 283.96 380.601C284.578 382.817 285.843 384.944 287.199 386.785C288.585 388.666 290.32 390.326 292.06 391.878C292.304 392.097 295.828 394.735 294.648 395.492C294.455 395.615 292.093 394.519 291.756 394.428C290.315 394.038 288.831 393.822 287.405 393.372C284.583 392.482 281.862 391.023 279.111 389.916C275.632 388.518 272.139 387.291 268.671 385.669C266.136 384.484 263.812 382.89 261.662 381.099C255.447 375.918 249.15 370.835 242.955 365.627C236.713 360.375 231.811 353.411 224.513 349.609C217.242 345.821 208.94 344.247 201.196 341.671C195.271 339.7 189.939 337.19 184.283 334.569C183.063 334.003 169.301 327.004 169.779 326.292C169.062 327.361 171.585 330.095 172.319 330.774C174.13 332.451 176.386 333.779 178.491 335.037C182.407 337.378 186.64 339.267 190.676 341.41C196.881 344.704 203.656 346.234 210.353 348.135C214.644 349.352 218.706 351.155 222.906 352.622C227.397 354.191 230.149 357.164 233.454 360.395C239.776 366.582 245.656 373.121 252.07 379.2C255.223 382.188 258.075 384.6 261.883 386.758C263.669 387.769 265.467 388.732 267.079 390.009C267.589 390.412 270.23 392.157 270.037 393.027C269.956 393.39 266.221 391.325 265.902 391.222C264.587 390.802 263.254 390.477 261.951 389.989C257.655 388.382 253.219 386.619 249.331 384.167C245.777 381.926 243.174 378.991 240.204 376.099C238.172 374.12 235.483 372.731 233.147 371.157C227.913 367.631 223.348 363.303 217.773 360.24C211.465 356.774 204.657 354.349 197.736 352.436C193.536 351.276 189.275 350.376 185.065 349.262C183.252 348.781 181.456 348.233 179.663 347.675C179.442 347.607 175.438 346.659 175.39 346.422C175.521 347.084 178.551 348.323 179.08 348.623C181.149 349.795 183.224 350.964 185.337 352.056C188.242 353.557 191.446 354.352 194.134 356.213C197.726 358.698 201.428 361.087 204.559 364.155C206.611 366.167 208.419 368.413 210.502 370.395C211.432 371.28 212.411 372.085 213.394 372.905C213.424 372.93 214.835 373.72 214.42 373.8C213.839 373.916 212.368 372.747 211.865 372.47C210.431 371.683 209.005 370.88 207.589 370.061C204.051 368.016 200.59 365.873 196.891 364.12C188.619 360.199 179.429 357.828 170.31 357.056C163.243 356.457 156.58 357.921 149.742 359.721C148.455 360.061 147.232 360.647 146.204 361.495C144.612 362.805 143.01 364.269 141.548 365.725C136.697 370.559 132.867 376.489 128.689 381.894C125.425 386.116 122.052 390.279 118.516 394.277C110.28 403.598 100.041 410.781 91.2009 419.478C85.8591 424.734 80.7134 430.209 75.2584 435.35C73.2514 437.238 71.1313 438.949 68.9785 440.661C68.3674 441.149 63.3726 444.57 63.526 445.357C63.4757 445.105 68.0303 442.329 68.2844 442.155C70.7843 440.42 73.2766 438.674 75.7438 436.894C79.9967 433.826 84.1061 430.566 88.1955 427.284C94.6087 422.136 101.034 417.103 107.702 412.29C110.529 410.25 113.34 408.18 116.082 406.025C116.461 405.726 120.631 402.625 120.594 402.441C120.744 403.191 118.69 404.984 118.184 405.597C116.185 408.022 114.195 410.451 112.214 412.891C108.662 417.262 104.88 421.447 100.788 425.317C96.1277 429.726 91.4675 433.992 87.1191 438.712C83.6257 442.505 79.9891 446.172 76.0732 449.524C69.3104 455.319 63.0708 461.624 56.5846 467.705C50.3751 473.527 44.0876 479.289 37.7423 484.965C34.7596 487.634 31.4699 489.726 28.296 492.123C27.6924 492.581 26.7443 493.597 25.8037 494.243C67.2884 535.454 136.594 590.228 158.381 602.128Z" fill="#3C3C3C"/>
<path d="M167.11 299.399C166.9 299.088 167.023 299.266 167.11 299.399V299.399Z" fill="#3C3C3C"/>
<path d="M249.379 108.281C247.065 111.796 243.307 113.482 240.327 116.326C236.243 120.224 234.357 125.327 231.899 130.241C231.839 130.35 231.779 130.455 231.718 130.563C232.163 130.111 232.375 127.643 232.551 126.944C232.923 125.481 233.305 124.019 233.7 122.563C234.372 120.101 235.164 117.759 236.449 115.531C238.919 111.253 244.439 108.311 249.379 108.281Z" fill="#3C3C3C"/>
<path d="M133.45 473.089C130.244 478.263 127.107 483.461 123.506 488.381C119.052 494.464 113.851 500.113 108.73 505.631C103.69 511.061 98.7007 516.566 93.5072 521.85C92.5792 522.793 91.5606 523.588 90.5973 524.476C88.2584 526.636 86.5332 529.317 83.988 531.271C83.8346 531.389 82.1546 532.508 82.1722 532.596C82.0439 531.943 84.3502 529.772 84.8029 529.186C85.9371 527.712 87.0437 526.221 88.1402 524.72C90.1522 521.968 92.1491 519.207 94.2416 516.516C98.9069 510.52 103.301 504.376 107.757 498.212C114.963 488.247 121.851 478.064 128.697 467.851C135.399 457.851 143.073 448.646 150.032 438.845C157.735 427.998 164.586 416.407 173.338 406.339C176.482 402.723 179.419 398.927 182.48 395.238C184.421 392.897 186.376 390.565 188.342 388.246C189.17 387.27 191.27 385.543 192.044 384.175C191.541 385.256 190.54 386.378 189.959 387.283C188.85 389.008 187.789 390.764 186.763 392.537C184.738 396.043 182.749 399.569 180.719 403.07C177.113 409.289 174.432 415.974 170.8 422.184C165.796 430.735 160.293 439.213 154.116 446.979C147.268 455.59 139.257 463.721 133.45 473.089Z" fill="#3C3C3C"/>
<path d="M205.839 417.244C205.963 417.224 206.086 417.201 206.208 417.179C206.049 417.259 205.912 417.3 205.839 417.244Z" fill="#3C3C3C"/>
<path d="M122.472 464.397C116.336 471.548 110.33 478.756 103.919 485.654C99.5129 490.395 94.3245 494.819 90.6879 500.211C90.5319 500.465 90.0918 501.277 89.7699 501.471C89.6517 501.541 90.8589 498.639 91.1506 498.232C93.1727 495.42 95.4563 492.784 97.5915 490.06C102.506 483.798 107.324 477.445 112.128 471.097C117.208 464.382 121.758 457.242 127.135 450.756C132.125 444.738 137.421 438.996 142.803 433.335C143.321 432.792 152.212 423.391 151.822 422.973C152.142 423.313 148.49 428.516 148.208 428.961C145.94 432.553 143.633 436.121 141.284 439.66C135.545 448.297 129.223 456.531 122.472 464.397Z" fill="#3C3C3C"/>
<path d="M178.909 456.976C174.797 461.84 170.8 466.827 166.374 471.409C162.352 475.574 158.147 479.563 154.294 483.886C154.239 483.949 152.431 486.064 152.267 485.954C152.406 486.047 163.622 470.622 164.701 469.179C170.951 460.826 176.683 452.054 182.895 443.611C185.79 439.68 189.728 436.227 193.219 432.822C195.337 430.755 197.006 428.403 198.787 426.047C199.962 424.49 201.176 422.963 202.459 421.494C202.992 420.883 206.561 417.714 206.458 417.133C206.375 417.149 206.294 417.164 206.211 417.176C207.919 416.319 214.091 408.434 214.015 408.316C214.481 409.053 212.215 412.453 211.865 413.097C210.791 415.074 209.526 416.93 208.294 418.808C206.184 422.02 204.81 425.596 202.829 428.894C200.281 433.131 197.716 436.77 194.28 440.274C188.966 445.689 183.805 451.186 178.909 456.976Z" fill="#3C3C3C"/>
</g>
</svg>
